<?xml version="1.0" standalone="no"?>
<!DOCTYPE svg PUBLIC "-//W3C//DTD SVG 20010904//EN"
 "http://www.w3.org/TR/2001/REC-SVG-20010904/DTD/svg10.dtd">
<svg version="1.0" xmlns="http://www.w3.org/2000/svg"
 width="650.000000pt" height="650.000000pt" viewBox="0 0 650.000000 650.000000"
 preserveAspectRatio="xMidYMid meet">
<metadata>
Created by potrace 1.14, written by Peter Selinger 2001-2017
</metadata>
<g transform="translate(0.000000,650.000000) scale(0.100000,-0.100000)"
fill="#000000" stroke="none">
<path d="M3139 6216 c-2 -2 -40 -6 -84 -9 -510 -37 -1102 -277 -1512 -613
-433 -355 -748 -796 -939 -1317 -30 -80 -42 -127 -38 -145 4 -21 3 -24 -5 -12
-6 8 -11 13 -11 10 0 -3 -7 -27 -15 -53 -8 -26 -10 -45 -6 -42 5 2 12 21 16
42 4 24 9 32 15 23 6 -9 10 -6 15 11 9 32 63 175 83 221 28 67 23 34 -9 -53
-65 -174 -129 -423 -155 -599 -19 -132 -31 -490 -16 -475 6 6 13 51 16 100 25
350 77 624 170 892 49 140 78 214 83 209 3 -3 -7 -34 -22 -71 -73 -184 -153
-507 -180 -731 -8 -61 -18 -440 -12 -434 3 3 8 59 12 125 13 249 13 248 52
490 10 63 74 308 107 407 51 155 73 204 211 463 99 186 277 420 439 578 324
315 593 491 1001 652 11 5 22 9 25 10 3 0 41 13 85 27 67 23 250 72 305 83 15
3 120 19 190 30 19 3 53 9 75 15 41 10 472 6 555 -5 90 -12 307 -56 400 -81
123 -33 351 -115 459 -165 242 -112 557 -334 749 -529 30 -30 58 -54 62 -53
24 7 282 -344 393 -535 146 -251 251 -531 311 -832 8 -41 18 -88 21 -105 3
-16 8 -55 10 -85 1 -30 5 -62 8 -70 11 -31 13 -90 2 -94 -6 -3 -5 -5 3 -5 6
-1 12 -13 12 -27 0 -14 -4 -23 -9 -20 -5 4 -7 -2 -5 -11 6 -27 10 -323 4 -323
-3 0 -5 -19 -4 -42 1 -24 -3 -48 -8 -55 -5 -7 -5 -14 2 -18 6 -4 7 -13 2 -23
-5 -9 -8 -24 -7 -32 1 -8 -4 -21 -9 -29 -9 -12 -8 -13 3 -6 11 6 12 5 5 -6
-11 -17 -13 -30 -20 -99 -7 -80 -56 -276 -109 -441 -46 -141 -226 -529 -246
-529 -5 0 -9 -6 -9 -14 0 -8 -6 -21 -13 -28 -7 -7 -16 -20 -19 -28 -15 -39
-110 -160 -120 -154 -7 4 -8 3 -4 -5 8 -12 -87 -139 -169 -226 -95 -100 -101
-108 -80 -97 28 15 73 56 194 175 83 81 99 94 81 62 -132 -225 -446 -512 -787
-720 -45 -27 -80 -51 -78 -54 3 -2 10 1 17 6 7 6 24 14 38 18 28 7 -206 -129
-257 -150 -18 -8 -33 -16 -33 -19 0 -7 136 52 230 99 256 128 504 309 708 515
165 166 403 474 386 501 -4 7 -3 9 4 5 14 -8 36 30 26 46 -4 7 -3 8 4 4 11 -7
17 6 13 27 -1 5 4 5 10 1 9 -5 10 -2 6 9 -3 9 -1 19 5 23 7 5 8 2 3 -6 -6 -9
-4 -11 4 -6 7 5 10 14 7 21 -2 7 2 16 11 19 9 4 13 13 9 22 -4 10 -2 13 6 8 8
-5 9 -2 5 10 -4 9 -3 15 2 12 5 -3 12 1 15 10 3 8 2 12 -4 9 -6 -3 -7 1 -4 9
3 9 9 14 13 12 4 -3 14 9 24 26 14 25 15 29 2 18 -23 -19 -18 -4 8 21 12 12
16 19 10 15 -9 -5 -11 -2 -7 8 3 9 10 13 15 10 5 -3 6 2 3 10 -3 9 -1 16 6 16
6 0 8 5 5 10 -3 6 -1 10 5 10 6 0 9 4 6 9 -9 14 5 42 17 34 5 -3 7 -1 4 4 -7
12 16 77 24 69 3 -3 5 3 5 12 0 18 86 284 94 292 3 3 6 19 8 35 1 17 6 37 9
45 9 22 10 27 12 56 0 14 4 23 9 21 4 -3 7 7 8 21 1 29 11 97 15 97 1 0 3 14
4 30 2 17 4 30 5 30 2 0 9 35 15 80 14 109 20 203 20 332 0 120 2 143 15 144
10 0 8 3 -5 9 -11 5 -15 9 -8 9 6 1 13 24 15 56 4 67 -9 74 -15 8 l-4 -48 1
53 c1 28 -1 54 -4 55 -3 2 0 3 5 2 6 -2 9 16 8 41 -1 24 3 44 8 44 5 0 9 -12
8 -27 0 -16 3 -62 7 -103 7 -74 8 -241 2 -270 -2 -8 -7 -20 -11 -27 -4 -6 -3
-14 3 -18 5 -3 10 -11 10 -16 0 -6 -5 -7 -12 -3 -7 5 -8 3 -3 -6 11 -17 7
-101 -9 -225 -3 -27 -9 -70 -12 -95 -3 -25 -10 -70 -16 -100 -14 -72 -13 -66
-27 -132 -7 -32 -9 -63 -5 -69 5 -8 3 -9 -6 -4 -10 6 -12 3 -8 -13 4 -12 2
-20 -2 -17 -8 5 -10 -2 -11 -53 0 -14 -4 -20 -11 -16 -7 4 -8 2 -4 -5 4 -6 2
-19 -6 -28 -7 -10 -8 -14 -1 -10 7 5 9 0 6 -13 -3 -11 -10 -17 -15 -14 -6 4
-7 -2 -3 -16 5 -14 3 -20 -3 -16 -6 4 -8 -2 -4 -16 4 -16 2 -19 -8 -13 -8 5
-11 4 -6 -3 9 -15 -4 -63 -15 -56 -8 5 -13 -10 -10 -30 3 -16 -11 -46 -19 -41
-4 3 -6 -5 -2 -17 4 -16 2 -19 -8 -13 -9 5 -11 4 -6 -4 9 -14 -13 -73 -24 -66
-4 3 -11 -2 -14 -11 -3 -8 -2 -12 4 -9 6 3 7 -1 4 -9 -3 -9 -10 -13 -15 -10
-5 3 -6 -2 -3 -10 3 -9 1 -16 -5 -16 -6 0 -8 -7 -5 -15 4 -9 -1 -18 -11 -21
-9 -4 -14 -13 -11 -21 4 -9 2 -11 -6 -7 -8 5 -9 2 -5 -10 5 -11 -1 -25 -17
-39 -26 -25 -55 -74 -36 -62 6 4 0 -15 -15 -41 -43 -82 -95 -159 -104 -157 -5
1 -15 -5 -23 -15 -12 -15 -11 -16 5 -3 9 7 17 9 17 3 0 -14 -26 -33 -34 -25
-4 4 -4 0 -1 -9 4 -9 1 -19 -6 -24 -8 -5 -10 -3 -4 6 5 8 4 11 -3 6 -6 -4 -9
-12 -7 -19 15 -39 -354 -438 -546 -591 -333 -264 -784 -482 -1164 -561 -243
-51 -403 -69 -617 -69 -87 -1 -158 -5 -158 -9 0 -5 85 -7 189 -6 190 2 236 6
446 35 51 7 178 32 230 45 81 21 81 21 65 11 -14 -9 -250 -66 -315 -76 -16 -2
-61 -9 -100 -15 -70 -12 -103 -15 -250 -27 -91 -7 -134 -23 -70 -25 475 -15
1020 138 1480 416 129 78 320 215 412 297 474 423 779 922 922 1511 47 191 60
274 47 288 -8 9 -8 10 2 5 7 -5 12 -1 12 11 1 10 7 68 14 128 13 106 15 538 3
610 -3 17 -8 55 -11 85 -8 75 -13 107 -37 233 -89 483 -287 902 -604 1282
-106 128 -277 299 -395 395 -30 25 -57 47 -60 50 -8 8 -109 82 -165 121 -272
189 -671 369 -965 434 -80 18 -213 45 -247 49 -24 3 -62 9 -85 12 -24 3 -54 8
-68 11 -28 5 -475 14 -481 9z m641 -66 c20 -6 21 -8 5 -8 -11 0 -33 4 -50 8
-27 7 -27 8 -5 8 14 0 36 -4 50 -8z m70 -16 c0 -2 -9 -4 -20 -4 -11 0 -20 4
-20 9 0 5 9 7 20 4 11 -3 20 -7 20 -9z m181 -39 c124 -32 303 -95 367 -129 41
-23 21 -19 -39 8 -111 48 -316 112 -484 149 -19 4 -19 5 1 6 12 0 82 -15 155
-34z m429 -155 c8 -5 11 -10 5 -10 -5 0 -17 5 -25 10 -8 5 -10 10 -5 10 6 0
17 -5 25 -10z m125 -60 c28 -16 46 -30 42 -30 -4 0 -31 13 -60 30 -29 16 -47
30 -42 30 6 0 33 -14 60 -30z m165 -96 c0 -2 -13 2 -30 11 -16 9 -30 18 -30
21 0 2 14 -2 30 -11 17 -9 30 -18 30 -21z m89 -49 c27 -17 143 -97 160 -111 9
-7 45 -36 81 -64 82 -65 272 -242 265 -248 -2 -3 -17 8 -32 24 -107 111 -302
271 -452 371 -53 36 -98 67 -101 70 -5 5 46 -22 79 -42z m812 -792 c13 -16 12
-17 -3 -4 -10 7 -18 15 -18 17 0 8 8 3 21 -13z m99 -159 c0 -3 8 -18 19 -32
19 -28 114 -214 149 -292 47 -104 105 -270 99 -277 -3 -2 -10 13 -17 34 -6 21
-15 47 -20 58 -5 11 -20 49 -33 85 -36 97 -96 221 -170 354 -37 66 -67 124
-67 130 0 6 9 -4 20 -22 11 -18 20 -35 20 -38z m298 -694 c0 -8 -6 1 -13 20
-7 19 -13 42 -13 50 0 8 6 -1 13 -20 7 -19 13 -42 13 -50z m9 -42 c-3 -8 -6
-5 -6 6 -1 11 2 17 5 13 3 -3 4 -12 1 -19z m10 -40 c-3 -8 -6 -5 -6 6 -1 11 2
17 5 13 3 -3 4 -12 1 -19z m10 -40 c-3 -8 -6 -5 -6 6 -1 11 2 17 5 13 3 -3 4
-12 1 -19z m10 -50 c-3 -7 -5 -2 -5 12 0 14 2 19 5 13 2 -7 2 -19 0 -25z m22
-63 c0 -5 -4 -3 -9 5 -5 8 -9 22 -9 30 0 16 17 -16 18 -35z m55 -72 c3 -25 2
-43 -3 -43 -5 0 -9 8 -9 18 1 9 -1 40 -5 67 -7 58 6 23 17 -42z m11 -94 c0
-19 5 -38 10 -42 6 -5 4 -7 -5 -5 -8 3 -15 17 -15 34 0 16 -4 35 -9 43 -6 10
-5 12 5 9 8 -3 14 -19 14 -39z m-25 -5 c0 -8 -19 -13 -24 -6 -3 5 1 9 9 9 8 0
15 -2 15 -3z m7 -106 c-2 -13 -4 -3 -4 22 0 25 2 35 4 23 2 -13 2 -33 0 -45z
m60 -850 c-3 -8 -6 -5 -6 6 -1 11 2 17 5 13 3 -3 4 -12 1 -19z m-17 -91 c-21
-91 -59 -218 -71 -235 -9 -15 -10 -14 -3 3 4 11 23 84 43 162 20 78 38 137 39
132 2 -5 -2 -33 -8 -62z m-349 -780 c-10 -9 -11 -8 -5 6 3 10 9 15 12 12 3 -3
0 -11 -7 -18z m49 -7 c-6 -11 -13 -20 -16 -20 -2 0 0 9 6 20 6 11 13 20 16 20
2 0 0 -9 -6 -20z m-71 -126 c-181 -299 -390 -543 -645 -756 -95 -79 -211 -164
-260 -192 -16 -9 -47 -28 -69 -42 -57 -36 -11 1 82 66 360 251 661 567 876
918 27 45 52 81 54 78 2 -2 -15 -34 -38 -72z"/>
<path d="M3017 5229 c-34 -26 -59 -112 -203 -694 -30 -121 -58 -236 -64 -255
-9 -31 -96 -390 -105 -430 -2 -8 -11 -44 -20 -80 -9 -36 -19 -74 -21 -86 -2
-11 -21 -92 -43 -180 -21 -87 -53 -217 -70 -289 -17 -71 -51 -215 -76 -320
-47 -193 -118 -509 -131 -578 -5 -32 -18 -47 -76 -94 -160 -127 -344 -330
-428 -471 -166 -281 -105 -463 185 -551 176 -53 440 -61 700 -20 190 29 443
102 636 182 612 254 1056 629 1234 1043 68 157 87 245 89 394 0 74 -2 155 -6
181 -7 52 -44 164 -62 194 -31 49 -29 53 42 74 37 11 108 31 157 45 84 22 113
29 174 41 32 6 39 14 21 25 -24 15 -108 12 -226 -10 -60 -10 -125 -22 -144
-25 -20 -3 -49 -9 -65 -14 -28 -7 -36 -3 -101 59 -38 36 -95 80 -125 97 -115
65 -277 107 -451 118 -104 6 -145 12 -218 30 -113 29 -103 76 37 176 423 302
592 444 698 589 88 121 127 228 128 349 0 235 -156 396 -366 378 -190 -17
-374 -149 -603 -432 -239 -296 -420 -581 -727 -1145 -55 -102 -227 -448 -227
-458 0 -5 -8 -16 -17 -23 -11 -10 -14 -10 -9 -2 4 7 9 21 11 31 2 10 31 132
64 272 34 140 63 261 65 270 2 8 6 26 9 40 4 14 61 243 127 510 122 490 182
717 246 933 28 93 33 121 23 133 -16 19 -32 18 -62 -7z m1228 -239 c86 -41
126 -103 133 -206 7 -110 -41 -241 -131 -359 -83 -108 -286 -293 -532 -484
-176 -137 -215 -171 -245 -219 -24 -36 -27 -48 -19 -80 18 -81 88 -106 354
-127 44 -4 94 -8 110 -9 52 -5 198 -46 252 -71 62 -28 159 -93 192 -129 l24
-25 -27 -11 c-15 -5 -31 -10 -35 -10 -4 0 -34 -9 -67 -19 -32 -10 -104 -33
-159 -51 -121 -38 -420 -150 -530 -197 -472 -206 -769 -358 -1033 -530 -63
-41 -116 -73 -117 -71 -6 6 111 400 152 513 74 203 247 566 350 735 22 36 42
70 44 75 4 11 116 192 252 410 289 460 524 724 745 836 102 52 216 64 287 29z
m225 -1841 c58 -112 76 -296 47 -449 -49 -247 -179 -473 -407 -701 -136 -136
-294 -261 -425 -335 -11 -6 -42 -24 -70 -41 -71 -42 -232 -118 -347 -164 -300
-119 -627 -182 -953 -183 -187 -1 -236 2 -325 23 -264 60 -286 216 -72 511 54
74 294 320 312 320 12 0 12 -14 0 -65 -5 -22 -12 -60 -16 -85 -3 -25 -8 -48
-10 -52 -3 -4 -7 -31 -10 -60 -3 -29 -8 -56 -10 -59 -2 -3 -6 -39 -10 -80 -5
-61 -3 -77 9 -88 13 -10 20 -9 41 4 27 18 26 16 101 365 20 91 38 176 41 189
10 47 27 62 182 164 224 148 401 243 737 397 296 135 1073 427 1142 429 17 1
28 -10 43 -40z"/>
<path d="M511 3984 c0 -11 3 -14 6 -6 3 7 2 16 -1 19 -3 4 -6 -2 -5 -13z"/>
<path d="M691 2025 c0 -5 8 -26 19 -45 11 -19 19 -30 19 -25 0 6 -8 26 -19 45
-11 19 -19 31 -19 25z"/>
<path d="M746 1910 c14 -31 104 -191 137 -245 24 -38 162 -231 187 -259 251
-292 463 -480 727 -645 127 -79 109 -61 -34 35 -240 160 -457 354 -634 567
-134 159 -198 252 -345 497 -47 77 -57 91 -38 50z"/>
<path d="M5865 1919 c-4 -6 -5 -12 -2 -15 2 -3 7 2 10 11 7 17 1 20 -8 4z"/>
<path d="M5781 1764 c-12 -19 -16 -32 -11 -29 11 7 43 65 36 65 -2 0 -13 -16
-25 -36z"/>
<path d="M5745 1709 c-4 -6 -5 -12 -2 -15 2 -3 7 2 10 11 7 17 1 20 -8 4z"/>
<path d="M5716 1663 c-6 -14 -5 -15 5 -6 7 7 10 15 7 18 -3 3 -9 -2 -12 -12z"/>
<path d="M5120 1242 c-42 -37 -93 -82 -115 -100 l-40 -34 50 34 c45 30 197
168 185 167 -3 0 -39 -30 -80 -67z"/>
<path d="M1794 881 c7 -11 46 -35 46 -28 0 3 -12 12 -26 22 -15 9 -23 12 -20
6z"/>
<path d="M1885 823 c18 -18 147 -95 151 -90 3 3 -14 16 -38 29 -24 14 -61 35
-83 48 -22 13 -35 19 -30 13z"/>
<path d="M2070 715 c27 -16 163 -82 195 -95 78 -31 129 -50 139 -50 6 1 -36
20 -94 44 -58 23 -138 59 -177 79 -71 36 -113 51 -63 22z"/>
<path d="M4250 710 c-18 -12 -2 -12 25 0 13 6 15 9 5 9 -8 0 -22 -4 -30 -9z"/>
<path d="M1910 696 c0 -2 7 -7 16 -10 8 -3 12 -2 9 4 -6 10 -25 14 -25 6z"/>
<path d="M2446 555 c17 -7 44 -16 60 -20 25 -4 24 -3 -6 8 -19 8 -46 17 -60
20 -19 5 -17 3 6 -8z"/>
<path d="M3353 543 c9 -2 23 -2 30 0 6 3 -1 5 -18 5 -16 0 -22 -2 -12 -5z"/>
<path d="M2578 513 c7 -3 16 -2 19 1 4 3 -2 6 -13 5 -11 0 -14 -3 -6 -6z"/>
<path d="M2359 480 c35 -17 98 -40 140 -51 42 -12 96 -28 121 -35 24 -8 40
-10 35 -5 -6 5 -50 21 -100 36 -49 15 -119 37 -155 50 -103 37 -109 38 -41 5z"/>
<path d="M3938 433 c7 -3 16 -2 19 1 4 3 -2 6 -13 5 -11 0 -14 -3 -6 -6z"/>
<path d="M3828 413 c6 -2 18 -2 25 0 6 3 1 5 -13 5 -14 0 -19 -2 -12 -5z"/>
<path d="M3688 396 c-42 -6 -79 -14 -82 -17 -6 -6 181 18 199 25 17 7 -37 4
-117 -8z"/>
<path d="M3579 386 c-2 -3 -37 -6 -77 -8 -39 -1 -72 -5 -72 -9 0 -6 152 0 159
7 2 2 2 6 -1 9 -2 3 -7 3 -9 1z"/>
<path d="M3295 369 c-3 -4 2 -6 10 -5 21 3 28 13 10 13 -9 0 -18 -4 -20 -8z"/>
<path d="M3390 370 c0 -6 7 -10 15 -10 8 0 15 2 15 4 0 2 -7 6 -15 10 -8 3
-15 1 -15 -4z"/>
<path d="M3348 363 c6 -2 18 -2 25 0 6 3 1 5 -13 5 -14 0 -19 -2 -12 -5z"/>
<path d="M2995 340 c28 -12 37 -12 30 0 -3 6 -16 10 -28 9 -21 0 -21 -1 -2 -9z"/>
<path d="M3053 333 c9 -2 25 -2 35 0 9 3 1 5 -18 5 -19 0 -27 -2 -17 -5z"/>
<path d="M3114 332 c4 -3 14 -7 22 -8 9 -1 13 0 10 4 -4 3 -14 7 -22 8 -9 1
-13 0 -10 -4z"/>
</g>
</svg>
